<?xml version="1.0" encoding="UTF-8"?>
<svg id="Layer_1" xmlns="http://www.w3.org/2000/svg" version="1.1" viewBox="0 0 32 32">
  <!-- Generator: Adobe Illustrator 29.4.0, SVG Export Plug-In . SVG Version: 2.1.0 Build 152)  -->
  <defs>
    <style>
      .st0 {
        fill: silver;
      }
    </style>
  </defs>
  <g id="Logo">
    <path class="st0" d="M5.9,11.9s0,0,0,0h0c-.7-.7-.7-2,0-2.7l6.4-6.4c-2.6-1-5.6-.5-7.7,1.6l-2,2C-.1,9.2-.1,13.7,2.7,16.5l8.5,8.5s0,0,0,0l4.3,4.3c.4.4,1,.4,1.3,0l3.2-3.2L5.9,11.9Z"/>
    <path class="st0" d="M29.3,6.9l-2-2c-2.8-2.8-7.3-2.8-10.1,0l-1,1h0s-4.6,4.6-4.6,4.6l4.3,4.3,5.8-5.8c.5-.5,1.2-.5,1.7,0l1.9,1.9c.5.5.5,1.2,0,1.7l-5.8,5.8,4.3,4.3,5.7-5.7c2.8-2.8,2.8-7.3,0-10.1Z"/>
  </g>
</svg>